<?xml version="1.0" encoding="UTF-8"?>
<svg width="58px" height="100px" viewBox="0 0 58 100" version="1.1" xmlns="http://www.w3.org/2000/svg" xmlns:xlink="http://www.w3.org/1999/xlink">
    <!-- Generator: Sketch 46.2 (44496) - http://www.bohemiancoding.com/sketch -->
    <title>iPhone SE</title>
    <desc>Created with Sketch.</desc>
    <defs>
        <linearGradient x1="49.8712062%" y1="-0.00203160271%" x2="49.8712062%" y2="100.039503%" id="linearGradient-1">
            <stop stop-color="#24B0E6" offset="0%"></stop>
            <stop stop-color="#23B2C5" offset="37.27%"></stop>
            <stop stop-color="#21B686" offset="100%"></stop>
        </linearGradient>
    </defs>
    <g id="Page-1" stroke="none" stroke-width="1" fill="none" fill-rule="evenodd">
        <g id="iPhone-SE" fill-rule="nonzero" fill="url(#linearGradient-1)">
            <g id="K14-Logo">
                <path d="M26.8560311,100 L0,70.4288939 L28.6614786,0 L58,70.4288939 L30.9182879,100 L30.9182879,83.0699774 L45.5875486,68.8487585 C46.2645914,68.1715576 46.2645914,67.0428894 45.5875486,66.3656885 C44.9105058,65.6884876 43.7821012,65.6884876 43.1050584,66.3656885 L30.9182879,78.1038375 L30.9182879,65.0112867 L45.5875486,50.7900677 C46.2645914,50.1128668 46.2645914,48.9841986 45.5875486,48.3069977 C44.9105058,47.6297968 43.7821012,47.6297968 43.1050584,48.3069977 L30.9182879,60.0451467 L30.9182879,26.6365688 C30.9182879,25.7336343 30.0155642,24.8306998 29.1128405,24.8306998 C28.2101167,24.8306998 27.307393,25.7336343 27.307393,26.6365688 L27.307393,60.0451467 L15.1206226,48.3069977 C14.4435798,47.6297968 13.3151751,47.6297968 12.6381323,48.3069977 C11.9610895,48.9841986 11.9610895,50.1128668 12.6381323,50.7900677 L27.307393,65.0112867 L27.307393,78.1038375 L15.1206226,66.3656885 C14.4435798,65.6884876 13.3151751,65.6884876 12.6381323,66.3656885 C11.9610895,67.0428894 11.9610895,68.1715576 12.6381323,68.8487585 L27.307393,83.0699774" id="Shape"></path>
            </g>
        </g>
    </g>
</svg>